<svg xmlns="http://www.w3.org/2000/svg" width="192" height="80" fill="none"><path fill="#fff" d="M74.507 34.523a3.79 3.79 0 0 0-2.05-.533 3.908 3.908 0 0 0-2.073.533 4.125 4.125 0 0 0-1.25 1.128c-.103.123-.288.164-.411.062-.041-.02-.062-.062-.082-.103a3.272 3.272 0 0 0-.513-.677A3.243 3.243 0 0 0 67 34.236a4.585 4.585 0 0 0-1.498-.246 4.21 4.21 0 0 0-1.333.205 3.14 3.14 0 0 0-1.067.636 4.789 4.789 0 0 0-.307.328.293.293 0 0 1-.41.041.33.33 0 0 1-.103-.226v-.45a.28.28 0 0 0-.287-.288h-1.887a.28.28 0 0 0-.288.287v11.015a.28.28 0 0 0 .288.288h1.887a.28.28 0 0 0 .287-.288V38.77a3.191 3.191 0 0 1 .287-1.456 2.15 2.15 0 0 1 .841-.923c.39-.226.841-.328 1.292-.308.41-.02.8.082 1.129.308.307.205.553.533.676.882.165.492.226 1.005.206 1.518v6.77a.28.28 0 0 0 .287.286h1.907a.28.28 0 0 0 .288-.287v-6.77a2.96 2.96 0 0 1 .307-1.456c.185-.39.472-.697.841-.923.39-.225.841-.328 1.293-.307.41-.02.8.082 1.128.307.308.206.554.534.656.882a4.24 4.24 0 0 1 .205 1.518v6.77a.28.28 0 0 0 .288.287h1.907a.28.28 0 0 0 .288-.287v-7.057a6.57 6.57 0 0 0-.41-2.44c-.206-.637-.637-1.17-1.19-1.56zm12.39 7.179a3.428 3.428 0 0 1-1.928 1.928c-.39.164-.8.246-1.231.246a3.67 3.67 0 0 1-1.785-.45 3.417 3.417 0 0 1-1.333-1.314 4.481 4.481 0 0 1 0-4.143 3.418 3.418 0 0 1 1.333-1.313 3.662 3.662 0 0 1 1.785-.451c.43 0 .84.082 1.23.246.41.164.8.41 1.129.738.349.349.615.739.8 1.19a4.868 4.868 0 0 1 0 3.323zm.41-6.256a.28.28 0 0 1-.287.287.33.33 0 0 1-.226-.103l-.02-.02a4.224 4.224 0 0 0-1.56-1.19c-.615-.287-1.292-.41-1.968-.41-.985 0-1.97.246-2.831.718-.862.492-1.6 1.19-2.072 2.072-.513.902-.78 1.99-.78 3.261-.04 1.128.247 2.256.78 3.262.492.882 1.21 1.6 2.072 2.071a5.922 5.922 0 0 0 2.83.718c.677 0 1.354-.123 1.97-.41a4.931 4.931 0 0 0 1.559-1.19l.02-.02a.292.292 0 0 1 .41-.041.33.33 0 0 1 .103.225v.903a.28.28 0 0 0 .287.287H89.4a.28.28 0 0 0 .287-.287V34.564a.28.28 0 0 0-.287-.288h-1.805a.28.28 0 0 0-.287.288v.882zm13.539-1.189h-2.215a.266.266 0 0 0-.206.082l-3.712 3.549c-.123.102-.308.102-.41-.02-.042-.062-.083-.124-.083-.186v-11.2a.28.28 0 0 0-.287-.287h-1.867a.28.28 0 0 0-.287.288v19.076a.28.28 0 0 0 .288.288h1.866a.28.28 0 0 0 .287-.288v-4.78c0-.163.144-.286.308-.286a.33.33 0 0 1 .226.102l4.184 5.17a.331.331 0 0 0 .226.102h2.297a.28.28 0 0 0 .288-.287.332.332 0 0 0-.062-.185l-4.944-6.133a.285.285 0 0 1 .021-.39l4.267-4.102c.123-.103.123-.288.02-.41a.252.252 0 0 0-.205-.103z"/><path fill="#fff" d="M104.785 37.005a3.119 3.119 0 0 1 1.066-.78 3.8 3.8 0 0 1 1.436-.266 2.94 2.94 0 0 1 1.559.39c.452.266.821.636 1.067 1.107.164.329.287.677.328 1.026a.283.283 0 0 1-.246.328h-5.641a.28.28 0 0 1-.287-.287v-.061c.02-.083.041-.144.061-.226.144-.451.37-.862.657-1.23zm5.579-2.297a6.162 6.162 0 0 0-3.077-.698c-.82-.02-1.661.144-2.441.431a5.466 5.466 0 0 0-1.887 1.23 5.699 5.699 0 0 0-1.21 1.909 7.354 7.354 0 0 0-.431 2.482 6.825 6.825 0 0 0 .718 3.179 5.16 5.16 0 0 0 2.031 2.113 6.09 6.09 0 0 0 3.056.759c1.169.04 2.339-.246 3.385-.78a6.318 6.318 0 0 0 2.154-2.01c.082-.144.041-.328-.082-.41-.021 0-.021-.02-.041-.02l-1.6-.74a.295.295 0 0 0-.37.103 3.834 3.834 0 0 1-1.312 1.252c-.616.328-1.293.471-1.99.471a3.396 3.396 0 0 1-1.846-.471 2.943 2.943 0 0 1-1.17-1.375c-.143-.369-.266-.759-.307-1.148a.283.283 0 0 1 .246-.329h8.472c.164 0 .287-.123.287-.266 0-.123.02-.287.02-.431a7.032 7.032 0 0 0-.677-3.18 4.598 4.598 0 0 0-1.928-2.071zm18.749-.185a3.789 3.789 0 0 0-2.051-.533 3.909 3.909 0 0 0-2.072.533 4.125 4.125 0 0 0-1.251 1.128c-.103.123-.288.164-.411.062-.041-.02-.061-.062-.082-.103a3.221 3.221 0 0 0-.513-.677 3.234 3.234 0 0 0-1.128-.697 4.552 4.552 0 0 0-1.477-.246 4.21 4.21 0 0 0-1.333.205c-.39.144-.759.37-1.067.636a4.688 4.688 0 0 0-.307.328.294.294 0 0 1-.411.041.331.331 0 0 1-.102-.226v-.45a.28.28 0 0 0-.287-.288h-1.929a.28.28 0 0 0-.287.287v11.015a.28.28 0 0 0 .287.288h1.888a.28.28 0 0 0 .287-.288V38.77a3.187 3.187 0 0 1 .287-1.456 2.15 2.15 0 0 1 .841-.923c.39-.226.841-.328 1.292-.308.411-.02.8.082 1.129.308.307.205.553.533.676.882.165.492.226 1.005.206 1.518v6.769a.28.28 0 0 0 .287.287h1.928a.28.28 0 0 0 .287-.287v-6.77a2.962 2.962 0 0 1 .308-1.456c.184-.39.472-.697.841-.902.39-.226.841-.328 1.292-.308.41-.02.8.082 1.128.308.308.205.554.533.657.882a4.26 4.26 0 0 1 .205 1.518v6.77c0 .163.143.286.287.286h1.908a.28.28 0 0 0 .287-.287v-7.036a6.584 6.584 0 0 0-.41-2.44c-.185-.678-.616-1.211-1.19-1.6zm11.487 6.79a2.602 2.602 0 0 1-1.293 2.359 3.07 3.07 0 0 1-1.415.349 2.486 2.486 0 0 1-1.272-.308 1.823 1.823 0 0 1-.738-.923 4.435 4.435 0 0 1-.246-1.456v-6.77a.28.28 0 0 0-.288-.287h-1.969a.28.28 0 0 0-.287.287v7.057c-.02.82.144 1.661.472 2.42.287.657.759 1.19 1.374 1.56a4.15 4.15 0 0 0 2.154.533 4.088 4.088 0 0 0 2.072-.513c.349-.205.656-.492.923-.8.102-.123.287-.123.41-.02a.328.328 0 0 1 .103.225v.574a.28.28 0 0 0 .287.288h1.908a.28.28 0 0 0 .287-.288V34.585a.28.28 0 0 0-.287-.287h-1.908a.28.28 0 0 0-.287.287v6.728zm11.036-1.539a17.663 17.663 0 0 0-1.785-.841c-.451-.164-.861-.349-1.251-.513a3.271 3.271 0 0 1-.902-.595 1.054 1.054 0 0 1-.349-.759.864.864 0 0 1 .41-.78 1.749 1.749 0 0 1 1.005-.245c.575 0 1.149.143 1.662.43.41.226.8.534 1.128.882.103.123.287.123.41.02l1.128-1.045c.124-.103.124-.288.021-.41a4.721 4.721 0 0 0-.944-.862 5.716 5.716 0 0 0-1.497-.76 5.802 5.802 0 0 0-1.785-.286c-.656 0-1.292.102-1.907.349a3.321 3.321 0 0 0-1.457 1.025 3.063 3.063 0 0 0-.041 3.446c.349.452.78.82 1.272 1.087s1.005.513 1.518.718c.513.185.964.37 1.354.554.349.164.677.37.923.657.226.246.349.574.349.902.02.37-.144.718-.452.964-.348.246-.779.37-1.189.349-.411 0-.821-.082-1.211-.246a4.13 4.13 0 0 1-1.107-.677 6.348 6.348 0 0 1-.841-.82c-.103-.124-.288-.124-.411-.021l-1.169 1.046c-.123.103-.123.267-.041.39.308.39.636.738 1.026 1.046a6.71 6.71 0 0 0 1.702.985 5.91 5.91 0 0 0 2.154.39 4.645 4.645 0 0 0 2.154-.472 3.365 3.365 0 0 0 1.928-3.139 2.86 2.86 0 0 0-.492-1.723c-.349-.451-.8-.82-1.292-1.087m3.61 6.113h1.887a.28.28 0 0 0 .287-.287V34.543a.28.28 0 0 0-.287-.287h-1.887a.281.281 0 0 0-.288.287V45.56c0 .164.124.287.288.287zM156.21 28c-.43 0-.841.164-1.128.451a1.463 1.463 0 0 0-.472 1.128c0 .431.165.82.472 1.108a1.676 1.676 0 0 0 2.277 0 1.52 1.52 0 0 0 .472-1.108 1.46 1.46 0 0 0-.472-1.128A1.544 1.544 0 0 0 156.21 28zm7.2 8.697a3.65 3.65 0 0 1 1.908-.513c.554 0 1.087.082 1.62.267.493.164.965.41 1.375.718.123.103.266.205.369.328a.29.29 0 0 0 .41 0 .262.262 0 0 0 .082-.205v-1.826a.262.262 0 0 0-.082-.205 4.175 4.175 0 0 0-1.579-.902 7.282 7.282 0 0 0-2.298-.37 6.534 6.534 0 0 0-3.159.76 5.676 5.676 0 0 0-2.215 2.133 6.595 6.595 0 0 0 0 6.297 5.875 5.875 0 0 0 2.215 2.154c.965.513 2.052.78 3.159.78.78 0 1.559-.103 2.298-.35a3.963 3.963 0 0 0 1.579-.922.262.262 0 0 0 .082-.205V42.81a.28.28 0 0 0-.287-.287.313.313 0 0 0-.205.082 1.943 1.943 0 0 1-.369.328 4.36 4.36 0 0 1-1.354.739 5 5 0 0 1-1.641.266 3.835 3.835 0 0 1-1.908-.492 3.67 3.67 0 0 1-1.333-1.354 4.05 4.05 0 0 1-.492-2.01c-.021-.698.164-1.375.492-1.99a3.366 3.366 0 0 1 1.333-1.395zm-113.66-.39c0-4.82-.021-8.984 0-10.523 0-3.2-1.416-4.143-2.257-4.43-1.293-.431-2.81.205-3.857 1.62-.513.698-3.138 4.349-5.97 8.287l1.15 2.277c3.076-4.287 6.092-8.471 6.646-9.23.472-.657 1.025-.903 1.313-.8.328.102.697.861.697 2.277 0 1.538 0 5.702.02 10.522 0 7.262.021 16.165 0 18.38-2.83-5.641-11.753-23.364-12.697-25.272-1.046-2.092-2.154-3.036-3.57-3.036h-.04c-1.62.02-2.79 1.067-3.59 3.2-.123.328-.328.964-.615 1.846-.246.76-.554 1.703-.903 2.77l1.805 1.764c.513-1.498.944-2.852 1.252-3.836.266-.82.471-1.477.574-1.764.636-1.723 1.23-1.723 1.477-1.723.451 0 .964.595 1.559 1.784.943 1.887 9.805 19.508 12.677 25.21a6.112 6.112 0 0 1-.39-.369c-1.826-1.784-8.246-8.082-11.528-11.302l-1.334 1.866c3.365 3.303 9.498 9.334 11.283 11.077 1.23 1.19 2.358 1.785 3.364 1.785a2.4 2.4 0 0 0 .943-.185c1.6-.656 1.97-2.748 1.97-3.425.04-1.354.02-10.626.02-18.77z"/><path fill="#fff" d="M32.23 42.707c.596-.82 1.6-2.215 2.79-3.897l-1.148-2.277-4.062 5.64-.02.042-.533.759c-1.457 2.051-5.354 7.507-7.18 10.072.841-2.462 2.297-6.77 3.733-10.995l-1.805-1.764c-1.6 4.697-3.302 9.682-4.184 12.287-.226-2.051-1.108-9.949-1.641-14.728l-.247-2.154c-.143-1.334.103-2.093.39-2.257.062-.04.144-.04.226-.04.43 0 1.251.327 2.256 1.292.903.882 4.739 4.636 7.139 6.994l1.333-1.846c-2.4-2.359-6.03-5.907-6.913-6.769-1.805-1.744-3.651-2.359-5.066-1.662-.76.37-1.99 1.457-1.641 4.534l.246 2.154c.554 4.882 1.456 13.066 1.64 14.851.165 1.518 1.232 2.851 2.565 3.2.246.062.472.102.718.102 1.497 0 2.564-1.23 2.995-1.846 1.723-2.42 5.415-7.61 7.015-9.846l1.395-1.846z"/><script xmlns=""/></svg>