<svg xmlns="http://www.w3.org/2000/svg" width="192" height="80" fill="none"><path fill="#fff" d="M106.928 45.521a4.13 4.13 0 1 1 .039-4.665l3.052-1.802a7.67 7.67 0 0 0-8.611-3.262 7.673 7.673 0 0 0-5.54 7.353 7.669 7.669 0 0 0 5.511 7.375 7.676 7.676 0 0 0 8.624-3.228l-3.075-1.771zM115.34 29h-3.542v21.24h3.54v-7.08a4.129 4.129 0 0 1 4.131-4.13 4.13 4.13 0 0 1 4.131 4.13v7.08h3.541v-7.768a6.984 6.984 0 0 0-11.802-5.053L115.34 29zm-24.785 0h-3.541v16.52a5.309 5.309 0 0 0 8.803 4.001l-1.71-2.902a1.766 1.766 0 0 1-1.388.67h-.394a1.771 1.771 0 0 1-1.77-1.769v-5.9h3.54v-3.54h-3.54V29zm-7.67 0a1.967 1.967 0 1 0 0 3.934 1.967 1.967 0 0 0 0-3.934zm1.77 21.24V36.08h-3.54v14.16h3.54z"/><path fill="#fff" fill-rule="evenodd" d="M64 50.24h3.54v-4.13h3.246a8.558 8.558 0 0 0 7.906-11.829A8.556 8.556 0 0 0 70.786 29H64v21.24zm3.54-17.7h3.246a5.017 5.017 0 0 1 3.547 8.56 5.017 5.017 0 0 1-3.547 1.47h-3.245l-.001-10.03z" clip-rule="evenodd"/><script xmlns=""/></svg>