<svg xmlns="http://www.w3.org/2000/svg" width="192" height="80" fill="none"><path fill="#fff" fill-rule="evenodd" d="M100.102 47.908h3.478c0-.186-.006-.468-.013-.795-.021-.972-.049-2.337.045-2.739h6.897l.023 3.53h3.484a318.587 318.587 0 0 1-.004-3.91c.002-.65.004-1.3.004-1.949 0-.327.006-.681.012-1.051.026-1.52.056-3.3-.305-4.492a6.922 6.922 0 0 0-10.825-3.698 6.919 6.919 0 0 0-2.503 3.63c-.375 1.227-.346 2.977-.32 4.498.006.367.012.721.012 1.052 0 .65-.005 1.307-.01 1.965-.009 1.32-.019 2.648.01 3.95l.015.009zm3.481-7.085c-.003-.19-.009-.381-.014-.573-.035-1.295-.07-2.623.529-3.584a3.43 3.43 0 0 1 5.928 0c.577.992.549 2.21.519 3.465-.005.228-.011.457-.013.687l-6.949.005zm39.915 7.087h-3.49l-.009.03a288.37 288.37 0 0 1-.004-3.947c.002-.658.004-1.316.004-1.971 0-.34-.006-.7-.012-1.071v-.002c-.026-1.526-.054-3.23.323-4.494a6.92 6.92 0 0 1 13.328.073c.354 1.28.328 2.95.305 4.47v.001c-.006.368-.012.727-.012 1.07v5.824h-3.489l-.021-3.516h-6.923v3.534zm-.011-7.693c.005.203.011.406.014.606l6.941.003c.002-.224.008-.446.014-.667.033-1.272.064-2.483-.515-3.481a3.455 3.455 0 0 0-2.954-1.706 3.402 3.402 0 0 0-2.974 1.69c-.594.974-.56 2.275-.526 3.555zm-51.733 5.221c-.873.943-3.352 2.596-5.479 2.443l-6.089-.02V31.468h6.121c1.69-.199 4.363 1.216 5.5 2.497 3.056 3.44 2.983 8.188-.053 11.473zm-8.116-10.44v9.332c.939.06 1.88.058 2.819-.008 4.198-.384 5.663-6.112 2.147-8.515A4.46 4.46 0 0 0 86.515 35a21.96 21.96 0 0 0-2.877 0z" clip-rule="evenodd"/><path fill="#fff" d="m120.087 40.31.05-2.44c-.073-.8.419-2.036.712-2.637a6.896 6.896 0 0 1 6.225-3.8 6.904 6.904 0 0 1 6.16 3.906c.302.61.771 1.813.686 2.593l.026 9.947h-3.413c-.019-.355-.013-1.754-.007-3.387.011-2.81.025-6.31-.076-6.367.012-.911-.653-1.814-1.087-2.21a3.403 3.403 0 0 0-2.379-.948c-1.705.005-3.396 1.511-3.396 3.129-.13.162-.106 3.325-.085 6.032.014 1.73.025 3.273-.005 3.73h-3.411c-.068-1.148-.043-3.322-.02-5.233.01-.865.02-1.676.02-2.314z"/><path fill="#fff" fill-rule="evenodd" d="M74.038 39.61c0 8.837-7.163 16-16 16s-16-7.163-16-16 7.163-16 16-16 16 7.163 16 16zm-6.677 4.57v-4.503l.009.02v-4.394a1.076 1.076 0 0 0-.513-.958 6.213 6.213 0 0 0-4.902-.905c-.973.227-1.93.52-2.862.879-.453.16-.902.33-1.351.502-.742.283-1.485.566-2.245.801a9.493 9.493 0 0 1-2.66.496 6.154 6.154 0 0 1-3.56-1.055l-.05-.034c-.1-.07-.212-.149-.322-.086-.129.073-.129.243-.129.386v8.849a.795.795 0 0 0 .384.709 6.48 6.48 0 0 0 3.223 1.005 9.79 9.79 0 0 0 3.053-.402c.88-.244 1.736-.54 2.594-.837.306-.107.613-.213.922-.317a16.136 16.136 0 0 1 3.645-.914 6.954 6.954 0 0 1 3.366.448c.354.15.697.324 1.026.522.246.143.372.081.372-.212z" clip-rule="evenodd"/><script xmlns=""/></svg>