<svg
    xmlns="http://www.w3.org/2000/svg"
   
>
<symbol viewBox="0 0 24 24" id="arrow-down-rounded"><path fill="currentColor" d="M12 14.975q-.2 0-.375-.062T11.3 14.7l-4.6-4.6q-.275-.275-.275-.7t.275-.7t.7-.275t.7.275l3.9 3.9l3.9-3.9q.275-.275.7-.275t.7.275t.275.7t-.275.7l-4.6 4.6q-.15.15-.325.213t-.375.062"></path></symbol>
<symbol viewBox="0 0 24 24" id="arrow-right"><path fill="currentColor" d="M22 12a10 10 0 0 1-10 10A10 10 0 0 1 2 12A10 10 0 0 1 12 2a10 10 0 0 1 10 10M6 13h8l-3.5 3.5l1.42 1.42L17.84 12l-5.92-5.92L10.5 7.5L14 11H6z"></path></symbol>
<symbol viewBox="0 0 24 24" id="figma"><path fill="currentColor" fill-rule="evenodd" d="M8.667 1.25a4.083 4.083 0 0 0-2.36 7.417A4.08 4.08 0 0 0 4.584 12c0 1.376.681 2.594 1.725 3.333a4.083 4.083 0 1 0 6.442 3.333v-3.504a4.083 4.083 0 1 0 4.942-6.496a4.083 4.083 0 0 0-2.36-7.417zm2.583 13.333H8.667a2.583 2.583 0 1 1 0-5.166h2.583zM8.667 7.917h2.583V2.75H8.667a2.583 2.583 0 1 0 0 5.167m9.25-2.584a2.583 2.583 0 0 1-2.58 2.584H12.75V2.75h2.584a2.583 2.583 0 0 1 2.583 2.583m-5.167 6.664a2.583 2.583 0 0 1 2.58-2.58h.006a2.583 2.583 0 1 1-2.586 2.586zm-4.083 4.086a2.583 2.583 0 1 0 2.583 2.584v-2.584z" clip-rule="evenodd"></path></symbol>
<symbol viewBox="0 0 24 24" id="github"><path fill="currentColor" d="M12.026 2a9.975 9.975 0 0 0-3.153 19.439c.5.09.679-.217.679-.481c0-.237-.008-.865-.011-1.7c-2.775.6-3.361-1.338-3.361-1.338a2.635 2.635 0 0 0-1.107-1.459c-.9-.619.069-.605.069-.605c.64.088 1.205.467 1.527 1.028a2.124 2.124 0 0 0 2.9.829c.046-.506.272-.979.635-1.334c-2.214-.251-4.542-1.107-4.542-4.93a3.865 3.865 0 0 1 1.026-2.671a3.588 3.588 0 0 1 .1-2.64s.837-.269 2.742 1.021a9.439 9.439 0 0 1 4.992 0c1.906-1.291 2.742-1.021 2.742-1.021c.37.835.405 1.78.1 2.64a3.84 3.84 0 0 1 1.024 2.675c0 3.833-2.33 4.675-4.552 4.922c.48.49.725 1.162.675 1.846c0 1.334-.012 2.41-.012 2.737c0 .267.178.577.687.479A9.975 9.975 0 0 0 12.026 2Z"></path></symbol>
<symbol viewBox="0 0 24 24" id="code"><path fill="currentColor" d="M19 3H5c-1.1 0-2 .9-2 2v14c0 1.1.9 2 2 2h14c1.1 0 2-.9 2-2V5c0-1.1-.9-2-2-2m-8 5H9v2c0 1.1-.9 2-2 2c1.1 0 2 .9 2 2v2h2v2H9c-1.1 0-2-.9-2-2v-1c0-1.1-.9-2-2-2v-2c1.1 0 2-.9 2-2V8c0-1.1.9-2 2-2h2zm8 5c-1.1 0-2 .9-2 2v1c0 1.1-.9 2-2 2h-2v-2h2v-2c0-1.1.9-2 2-2c-1.1 0-2-.9-2-2V8h-2V6h2c1.1 0 2 .9 2 2v1c0 1.1.9 2 2 2z"></path></symbol>
<symbol viewBox="0 0 24 24" id="dollar"><g fill="currentColor"><path d="M10.333 8.472h.917v2.778h-.917c-.937 0-1.583-.682-1.583-1.389s.646-1.389 1.583-1.389m2.417 7.056V12.75h.917c.937 0 1.583.682 1.583 1.389s-.646 1.389-1.583 1.389z"></path><path d="M9.367 2.25h5.266c1.092 0 1.958 0 2.655.057c.714.058 1.317.18 1.869.46a4.75 4.75 0 0 1 2.075 2.077c.281.55.403 1.154.461 1.868c.057.697.057 1.563.057 2.655v5.266c0 1.092 0 1.958-.057 2.655c-.058.714-.18 1.317-.46 1.869a4.75 4.75 0 0 1-2.076 2.075c-.552.281-1.155.403-1.869.461c-.697.057-1.563.057-2.655.057H9.367c-1.092 0-1.958 0-2.655-.057c-.714-.058-1.317-.18-1.868-.46a4.75 4.75 0 0 1-2.076-2.076c-.281-.552-.403-1.155-.461-1.869c-.057-.697-.057-1.563-.057-2.655V9.367c0-1.092 0-1.958.057-2.655c.058-.714.18-1.317.46-1.868a4.75 4.75 0 0 1 2.077-2.076c.55-.281 1.154-.403 1.868-.461c.697-.057 1.563-.057 2.655-.057M12.75 6.5a.75.75 0 0 0-1.5 0v.472h-.917c-1.64 0-3.083 1.234-3.083 2.89c0 1.655 1.443 2.888 3.083 2.888h.917v2.778H8a.75.75 0 0 0 0 1.5h3.25v.472a.75.75 0 0 0 1.5 0v-.472h.917c1.64 0 3.083-1.233 3.083-2.89c0-1.655-1.443-2.888-3.083-2.888h-.917V8.472h2.583a.75.75 0 0 0 0-1.5H12.75z"></path></g></symbol>
<symbol viewBox="0 0 24 24" id="play"><path fill="currentColor" d="M12 2C6.475 2 2 6.475 2 12s4.475 10 10 10s10-4.475 10-10S17.525 2 12 2m-2 14.5v-9l6 4.5z"></path></symbol>
<symbol viewBox="0 0 24 24" id="menu-book"><path fill="currentColor" d="M13 17.05q1.1-.525 2.213-.788T17.5 16q.9 0 1.763.15T21 16.6V6.7q-.825-.35-1.713-.525T17.5 6q-1.175 0-2.325.3T13 7.2zm-1 2.425q-.35 0-.663-.088t-.587-.237q-.975-.575-2.05-.862T6.5 18q-1.05 0-2.062.275T2.5 19.05q-.525.275-1.012-.025T1 18.15V6.1q0-.275.138-.525T1.55 5.2q1.175-.575 2.413-.888T6.5 4q1.45 0 2.838.375T12 5.5q1.275-.75 2.663-1.125T17.5 4q1.3 0 2.538.313t2.412.887q.275.125.413.375T23 6.1v12.05q0 .575-.487.875t-1.013.025q-.925-.5-1.937-.775T17.5 18q-1.125 0-2.2.288t-2.05.862q-.275.15-.587.238t-.663.087m2-10.7q0-.225.163-.462T14.525 8q.725-.25 1.45-.375T17.5 7.5q.5 0 .988.063t.962.162q.225.05.388.25t.162.45q0 .425-.275.625t-.7.1q-.35-.075-.737-.112T17.5 9q-.65 0-1.275.125t-1.2.325q-.45.175-.737-.025T14 8.775m0 5.5q0-.225.163-.462t.362-.313q.725-.25 1.45-.375T17.5 13q.5 0 .988.063t.962.162q.225.05.388.25t.162.45q0 .425-.275.625t-.7.1q-.35-.075-.737-.112T17.5 14.5q-.65 0-1.275.113t-1.2.312q-.45.175-.737-.012T14 14.275m0-2.75q0-.225.163-.462t.362-.313q.725-.25 1.45-.375t1.525-.125q.5 0 .988.063t.962.162q.225.05.388.25t.162.45q0 .425-.275.625t-.7.1q-.35-.075-.737-.112t-.788-.038q-.65 0-1.275.125t-1.2.325q-.45.175-.737-.025t-.288-.65"></path></symbol>
<symbol viewBox="0 0 48 48" id="sparss"><path fill="none" stroke="currentColor" stroke-linecap="round" stroke-linejoin="round" d="M35.77 6.79a6.73 6.73 0 1 1 0 13.45h-6.72v-6.73a6.72 6.72 0 0 1 6.72-6.72m-19.67 0h.33a6.6 6.6 0 0 1 3.2.9A6.72 6.72 0 0 1 23 13.51h-4a6.73 6.73 0 1 1-13.45 0h4a6.72 6.72 0 0 1 3.35-5.82a6.6 6.6 0 0 1 3.2-.9m17.77 18.28a8.08 8.08 0 1 1-8.07 8.07a8.07 8.07 0 0 1 8.07-8.07M14.25 27l4.06 7l4.06 7H6.12l4.07-7z"></path></symbol>
<symbol viewBox="0 0 24 24" id="light-code"><path fill="currentColor" d="m4.114 12.006l4.24 4.24q.14.14.15.345q.01.203-.15.363t-.354.16t-.354-.16l-4.388-4.389q-.131-.13-.184-.267q-.053-.136-.053-.298t.053-.298t.184-.267l4.388-4.389q.146-.146.347-.156t.366.156t.166.357t-.165.357zm15.773-.012l-4.24-4.24q-.141-.14-.15-.344t.15-.364t.353-.16t.354.16l4.388 4.389q.131.13.184.267t.053.298t-.053.298t-.184.268l-4.388 4.388q-.146.146-.344.153q-.198.006-.364-.159t-.165-.357q0-.191.165-.357z"></path></symbol>
<symbol viewBox="0 0 24 24" id="view-carousel"><path fill="currentColor" d="M18 6v11h4V6M2 17h4V6H2m5 13h10V4H7z"></path></symbol>
<symbol viewBox="0 0 16 16" id="view-page"><path fill="currentColor" d="M5.5 5a.5.5 0 0 0 0 1h5a.5.5 0 0 0 0-1zM5 7.5a.5.5 0 0 1 .5-.5h5a.5.5 0 0 1 0 1h-5a.5.5 0 0 1-.5-.5M5.5 9a.5.5 0 0 0 0 1h3a.5.5 0 0 0 0-1z"></path><path fill="currentColor" fill-rule="evenodd" d="M3 4.4c0-.84 0-1.26.163-1.58c.144-.282.373-.512.656-.656c.321-.163.741-.163 1.58-.163h5.2c.84 0 1.26 0 1.58.163c.282.144.512.373.656.656c.164.321.164.741.164 1.58v7.2c0 .84 0 1.26-.164 1.58a1.5 1.5 0 0 1-.656.656c-.321.163-.741.163-1.58.163h-5.2c-.84 0-1.26 0-1.58-.163a1.5 1.5 0 0 1-.656-.656C3 12.859 3 12.439 3 11.6zM5.4 3h5.2c.436 0 .704 0 .904.017a1.3 1.3 0 0 1 .216.034l.008.003a.5.5 0 0 1 .22.227l.01.032c.008.034.017.09.025.184c.016.2.017.467.017.904v7.2c0 .437 0 .704-.017.904a1.3 1.3 0 0 1-.034.216l-.003.007a.5.5 0 0 1-.218.218l-.008.004l-.032.009c-.034.008-.09.017-.184.025c-.2.016-.467.017-.904.017H5.4c-.437 0-.704 0-.904-.017a1.3 1.3 0 0 1-.216-.034l-.007-.004a.5.5 0 0 1-.218-.218l-.004-.007l-.009-.032a1 1 0 0 1-.025-.184c-.016-.2-.017-.467-.017-.904V4.4c0-.437 0-.704.017-.904a1.3 1.3 0 0 1 .034-.216l.004-.008a.5.5 0 0 1 .218-.219l.007-.003l.032-.009a1 1 0 0 1 .184-.025c.2-.016.467-.017.904-.017" clip-rule="evenodd"></path></symbol>
<symbol viewBox="0 0 24 24" id="people-alt"><path fill="currentColor" fill-rule="evenodd" d="M16.67 13.13C18.04 14.06 19 15.32 19 17v3h4v-3c0-2.18-3.57-3.47-6.33-3.87"></path><circle cx="9" cy="8" r="4" fill="currentColor" fill-rule="evenodd"></circle><path fill="currentColor" fill-rule="evenodd" d="M15 12c2.21 0 4-1.79 4-4s-1.79-4-4-4c-.47 0-.91.1-1.33.24a5.98 5.98 0 0 1 0 7.52c.42.14.86.24 1.33.24m-6 1c-2.67 0-8 1.34-8 4v3h16v-3c0-2.66-5.33-4-8-4"></path></symbol>
<symbol viewBox="0 0 24 24" id="developer-guide"><path fill="currentColor" d="M5 21q-.825 0-1.412-.587T3 19V5q0-.825.588-1.412T5 3h14q.825 0 1.413.588T21 5v14q0 .825-.587 1.413T19 21zm7-9l2.5-1.5L17 12V5h-5z"></path></symbol>
<symbol viewBox="0 0 24 24" id="light-help-center"><path fill="currentColor" d="M12.039 17.135q.332 0 .56-.228t.228-.56q0-.334-.228-.562q-.228-.227-.56-.227t-.561.227t-.228.561t.228.56t.56.229m-.515-3.312h.966q.038-.67.248-1.065q.21-.397.802-.989q.72-.721 1.045-1.25q.324-.53.324-1.204q0-1.17-.804-1.887t-1.963-.717q-1.068 0-1.838.57q-.77.569-1.126 1.365l.92.381q.251-.598.719-.991q.467-.394 1.263-.394q.944 0 1.404.517q.46.516.46 1.174q0 .501-.276.919q-.275.417-.77.877q-.807.744-1.09 1.34t-.284 1.354M4 20V4h16v16z"></path></symbol>
<symbol viewBox="0 0 24 24" id="play-circle"><path fill="currentColor" d="M10 15.577L15.577 12L10 8.423zM12.003 21q-1.866 0-3.51-.708q-1.643-.709-2.859-1.924t-1.925-2.856T3 12.003t.709-3.51Q4.417 6.85 5.63 5.634t2.857-1.925T11.997 3t3.51.709q1.643.708 2.859 1.922t1.925 2.857t.709 3.509t-.708 3.51t-1.924 2.859t-2.856 1.925t-3.509.709"></path></symbol>
<symbol viewBox="0 0 24 24" id="close"><path fill="currentColor" d="m6.4 18.308l-.708-.708l5.6-5.6l-5.6-5.6l.708-.708l5.6 5.6l5.6-5.6l.708.708l-5.6 5.6l5.6 5.6l-.708.708l-5.6-5.6z"></path></symbol>
<symbol viewBox="0 0 24 24" id="menu"><path fill="currentColor" d="M3 18v-2h18v2zm0-5v-2h18v2zm0-5V6h18v2z"></path></symbol>
</svg>