<svg viewBox="0 0 82 24" id="svg3987107727">
      <path d="M 53.348 10.384 C 53.73 10.736 53.964 11.206 54.048 11.792 L 49.654 11.792 C 49.749 11.206 49.995 10.736 50.386 10.384 C 50.779 10.032 51.273 9.856 51.867 9.856 C 52.472 9.856 52.966 10.032 53.348 10.384 Z M 51.931 15.36 C 51.273 15.36 50.743 15.168 50.338 14.784 C 49.936 14.39 49.697 13.862 49.622 13.2 L 55.911 13.2 L 55.927 12.608 C 55.927 11.37 55.551 10.346 54.797 9.536 C 54.055 8.714 53.077 8.304 51.867 8.304 C 50.657 8.304 49.67 8.72 48.905 9.552 C 48.141 10.384 47.759 11.414 47.759 12.64 C 47.759 13.898 48.136 14.938 48.89 15.76 C 49.654 16.582 50.652 16.992 51.883 16.992 C 52.765 16.992 53.534 16.774 54.192 16.336 C 54.86 15.888 55.344 15.286 55.641 14.528 L 53.937 14.08 C 53.577 14.934 52.908 15.36 51.931 15.36 Z" fill="var(--token-4bdccbfa-12c0-428b-ac60-7ef1e3edfaa1, rgb(26, 29, 30))"></path>
      <path d="M 7.961 4.8 L 3.981 7.2 L 3.981 2.4 L 7.961 0 Z" fill="rgb(98,77,227)"></path>
      <path d="M 15.922 9.6 L 15.922 4.8 L 19.903 2.4 L 19.903 7.2 Z" fill="#ab9ff4"></path>
      <path d="M 7.961 4.8 L 7.961 0 L 11.942 2.4 L 11.942 7.2 Z" fill="#ab9ff4"></path>
      <path d="M 19.903 2.4 L 15.922 4.8 L 11.942 2.4 L 15.922 0 Z" fill="rgb(98,77,227)"></path>
      <path d="M 15.922 24 L 15.922 19.2 L 11.942 16.8 L 11.942 21.6 Z" fill="rgb(171,159,244)"></path>
      <path d="M 3.981 16.8 L 3.981 12 L 0 9.6 L 0 14.4 Z" fill="#624de3"></path>
      <path d="M 15.922 24 L 15.922 19.2 L 19.903 16.8 L 19.903 21.6 Z" fill="#624de3"></path>
      <path d="M 7.961 9.6 L 3.981 12 L 0 9.6 L 3.981 7.2 Z" fill="rgb(171,159,244)"></path>
      <path d="M 11.942 21.6 L 7.961 24 L 3.981 21.6 L 7.961 19.2 Z" fill="rgb(98,77,227)"></path>
      <path d="M 23.883 14.4 L 19.903 16.8 L 15.922 14.4 L 19.903 12 Z" fill="#ab9ff4"></path>
      <path d="M 7.961 19.2 L 3.981 21.6 L 3.981 16.8 L 7.961 14.4 Z" fill="#ab9ff4"></path>
      <path d="M 15.922 14.4 L 11.942 16.8 L 7.961 14.4 L 11.942 12 Z" fill="#624de3"></path>
      <path d="M 19.903 12 L 19.903 7.2 L 23.883 9.6 L 23.883 14.4 Z" fill="#624de3"></path>
      <path d="M 11.942 12 L 7.961 14.4 L 7.961 9.6 L 11.942 7.2 Z" fill="rgb(141,124,246)"></path>
      <path d="M 11.942 12 L 11.942 7.2 L 15.922 9.6 L 15.922 14.4 Z" fill="rgb(171,159,244)"></path>
      <path d="M 76.329 16.72 L 73.001 8.496 L 75.024 8.496 L 77.269 14.512 L 79.546 8.496 L 81.52 8.496 L 77.858 17.536 C 77.444 18.56 76.977 19.274 76.457 19.68 C 75.936 20.096 75.289 20.304 74.514 20.304 L 73.973 20.272 L 73.973 18.576 C 74.121 18.586 74.28 18.592 74.45 18.592 C 74.811 18.592 75.124 18.496 75.39 18.304 C 75.665 18.112 75.915 17.738 76.138 17.184 Z" fill="var(--token-4bdccbfa-12c0-428b-ac60-7ef1e3edfaa1, rgb(26, 29, 30))"></path>
      <path d="M 28.486 13.632 L 30.365 13.248 C 30.408 13.878 30.635 14.374 31.049 14.736 C 31.463 15.098 32.042 15.28 32.785 15.28 C 33.56 15.28 34.16 15.146 34.584 14.88 C 35.009 14.602 35.221 14.208 35.221 13.696 C 35.221 13.322 35.105 13.018 34.871 12.784 C 34.648 12.55 34.351 12.374 33.979 12.256 C 33.582 12.13 33.178 12.028 32.769 11.952 C 32.334 11.856 31.893 11.744 31.447 11.616 C 31.021 11.486 30.61 11.309 30.221 11.088 C 29.861 10.874 29.564 10.554 29.33 10.128 C 29.107 9.702 28.995 9.178 28.995 8.56 C 28.995 7.622 29.362 6.826 30.094 6.176 C 30.838 5.526 31.819 5.2 33.04 5.2 C 34.25 5.2 35.211 5.514 35.922 6.144 C 36.633 6.762 37.036 7.578 37.132 8.592 L 35.253 8.944 C 35.242 8.358 35.046 7.878 34.664 7.504 C 34.282 7.13 33.74 6.944 33.04 6.944 C 32.371 6.944 31.845 7.082 31.463 7.36 C 31.092 7.626 30.906 8.01 30.906 8.512 C 30.906 8.842 31.017 9.12 31.24 9.344 C 31.474 9.558 31.777 9.722 32.148 9.84 C 32.52 9.946 32.928 10.048 33.374 10.144 C 33.82 10.23 34.266 10.346 34.711 10.496 C 35.157 10.634 35.567 10.822 35.937 11.056 C 36.309 11.28 36.606 11.61 36.829 12.048 C 37.063 12.474 37.179 12.998 37.179 13.616 C 37.179 14.65 36.771 15.478 35.953 16.096 C 35.137 16.714 34.048 17.024 32.689 17.024 C 31.373 17.024 30.37 16.704 29.68 16.064 C 28.991 15.414 28.593 14.602 28.486 13.632 Z" fill="var(--token-4bdccbfa-12c0-428b-ac60-7ef1e3edfaa1, rgb(26, 29, 30))"></path>
      <path d="M 60.751 15.312 C 61.249 15.312 61.679 15.174 62.041 14.896 C 62.401 14.618 62.64 14.25 62.757 13.792 L 64.572 14.24 C 64.328 15.04 63.888 15.702 63.251 16.224 C 62.624 16.736 61.796 16.992 60.767 16.992 C 59.567 16.992 58.58 16.576 57.805 15.744 C 57.03 14.902 56.643 13.872 56.643 12.656 C 56.643 11.43 57.03 10.4 57.805 9.568 C 58.58 8.726 59.567 8.304 60.767 8.304 C 61.796 8.304 62.624 8.566 63.251 9.088 C 63.888 9.6 64.328 10.256 64.572 11.056 L 62.757 11.504 C 62.652 11.064 62.399 10.674 62.041 10.4 C 61.679 10.122 61.249 9.984 60.751 9.984 C 60.082 9.984 59.546 10.234 59.143 10.736 C 58.739 11.226 58.538 11.866 58.538 12.656 C 58.538 13.446 58.739 14.086 59.143 14.576 C 59.546 15.066 60.082 15.312 60.751 15.312 Z" fill="var(--token-4bdccbfa-12c0-428b-ac60-7ef1e3edfaa1, rgb(26, 29, 30))"></path>
      <path d="M 66.68 7.104 C 66.33 7.104 66.043 6.998 65.821 6.784 C 65.598 6.56 65.486 6.278 65.486 5.936 C 65.486 5.584 65.598 5.296 65.821 5.072 C 66.043 4.848 66.33 4.736 66.68 4.736 C 67.019 4.736 67.301 4.848 67.524 5.072 C 67.747 5.296 67.859 5.584 67.859 5.936 C 67.859 6.278 67.747 6.56 67.524 6.784 C 67.301 6.998 67.02 7.104 66.68 7.104 Z" fill="var(--token-4bdccbfa-12c0-428b-ac60-7ef1e3edfaa1, rgb(26, 29, 30))"></path>
      <path d="M 65.725 16.8 L 65.725 8.496 L 67.62 8.496 L 67.62 16.8 Z" fill="var(--token-4bdccbfa-12c0-428b-ac60-7ef1e3edfaa1, rgb(26, 29, 30))"></path>
      <path d="M 69.764 8.496 L 69.764 7.616 C 69.764 6.678 70.003 5.974 70.48 5.504 C 70.958 5.034 71.611 4.8 72.439 4.8 L 73.076 4.848 L 73.076 6.528 C 73.012 6.506 72.896 6.496 72.725 6.496 C 72.343 6.496 72.068 6.592 71.897 6.784 C 71.738 6.966 71.658 7.28 71.658 7.728 L 71.658 8.496 L 73.123 8.496 L 73.123 10.016 L 71.658 10.016 L 71.658 16.8 L 69.764 16.8 L 69.764 10.016 L 68.442 10.016 L 68.442 8.496 Z" fill="var(--token-4bdccbfa-12c0-428b-ac60-7ef1e3edfaa1, rgb(26, 29, 30))"></path>
      <path d="M 0 0 L 82 0 L 82 24 L 0 24 Z" fill="transparent"></path>
      <path d="M 40.551 15.712 L 40.551 20.128 L 38.656 20.128 L 38.656 8.496 L 40.408 8.496 L 40.408 9.68 C 40.991 8.762 41.92 8.304 43.194 8.304 C 44.383 8.304 45.317 8.72 45.996 9.552 C 46.687 10.384 47.031 11.418 47.031 12.656 C 47.031 13.894 46.687 14.928 45.996 15.76 C 45.317 16.582 44.383 16.992 43.194 16.992 C 41.984 16.992 41.103 16.566 40.551 15.712 Z M 40.487 12.656 C 40.487 13.424 40.694 14.058 41.108 14.56 C 41.533 15.062 42.101 15.312 42.812 15.312 C 43.513 15.312 44.075 15.062 44.5 14.56 C 44.924 14.048 45.137 13.414 45.137 12.656 C 45.137 11.878 44.924 11.232 44.5 10.72 C 44.075 10.208 43.513 9.952 42.812 9.952 C 42.101 9.952 41.533 10.208 41.108 10.72 C 40.694 11.222 40.487 11.866 40.487 12.656 Z" fill="var(--token-4bdccbfa-12c0-428b-ac60-7ef1e3edfaa1, rgb(26, 29, 30))"></path>
    </svg>